# xmcd
#
# Track frame offsets:
#	150
#	13700
#	30270
#	47660
#	65715
#	78042
#	97302
#	119137
#	136887
#	152495
#
# Disc length: 2253 seconds
#
# Revision: 1
# Processed by: cddbd v1.5.1PL2 Copyright (c) Steve Scherf et al.
# Submitted via: dBpowerAMP V4.0
#
DISCID=7d08cb0a
DTITLE=Diamond Rio - All American Country
DYEAR=2003
DGENRE=Country
TTITLE0=In A Week OrTwo
TTITLE1=Love A Little Stronger
TTITLE2=Walkin' Away
TTITLE3=You're Gone
TTITLE4=This Romeo Ain't Got Julie Yet
TTITLE5=Mama Don't Forget To Pray For Me
TTITLE6=Sawmill Road
TTITLE7=Two Pump Texaco
TTITLE8=She Misses Him On Sunday The Most
TTITLE9=Down By The Riverside
EXTD=
EXTT0=
EXTT1=
EXTT2=
EXTT3=
EXTT4=
EXTT5=
EXTT6=
EXTT7=
EXTT8=
EXTT9=
PLAYORDER=
